<svg xmlns="http://www.w3.org/2000/svg" viewBox="0 0 50 60" width="50px" height="50px">
  <defs>
    <linearGradient id="gradient" fy="100%">
      <stop offset="0%" stop-color="#ff2975" stop-opacity="1">
        <animate attributeName="stop-color" dur="1s" values="#8c1eff; #FF00FF; #8c1eff" repeatCount="indefinite"/>
      </stop>
      <stop offset="100%" stop-color="#ff2975" stop-opacity="1">
        <animate attributeName="stop-color" dur="1s" values="#FF00FF; #ffd319; #FF00FF" repeatCount="indefinite"/>
      </stop>
    </linearGradient>
  </defs>
<!--   <animateTransform attributeName="transform" type="rotate" values="0; 360" dur="5s" repeatCount="indefinite"/> -->
<g>
  <animateTransform attributeName="transform" type="translate" values="0 0; 1, 1; 0 0" dur="1s" repeatCount="indefinite"/>
  <g>
    <animateTransform attributeName="transform" type="scale" values="1;0.95;1" dur="1s" repeatCount="indefinite"/>
    <path id="headphones" fill="url(#gradient)" 
       d="m 21.522936,0.45841481 c -0.3847,0.002457 -0.792639,0.0133681 -1.230539,0.031919 -3.439363,0.1457324 -5.89887,0.82461479 -9.091599,2.50824049 -6.4069875,3.378602 -9.8729432,8.7441407 -10.8028251,16.7239887 -0.53917494,4.626995 0.13518335,10.927274 1.7598168,16.438148 0.7484285,2.538713 0.7915186,2.900216 0.8036877,6.723901 l 0.012856,4.041294 1.0213995,2.056611 c 1.295391,2.608666 3.2658814,4.996056 5.1770295,6.272269 1.5659016,1.045672 3.8109576,2.000956 4.7258796,2.01041 0.296808,0.0029 1.308088,0.212305 2.24717,0.465433 2.139492,0.576723 4.132487,0.615677 6.062655,0.118154 1.726711,-0.445079 2.776628,-1.036136 4.260913,-2.399146 0.968335,-0.889217 1.097887,-0.941011 1.585457,-0.632183 1.364292,0.864156 2.12703,1.09672 3.879321,1.181947 1.706459,0.08297 2.039871,0.01893 3.522974,-0.675058 0.900959,-0.421605 2.089587,-1.136437 2.641624,-1.588787 0.552047,-0.452369 1.491223,-0.952681 2.08711,-1.111442 2.168397,-0.5777 4.553813,-4.016704 5.501931,-7.932996 0.504041,-2.081994 0.565856,-5.738253 0.119573,-7.066906 -0.180234,-0.536612 -0.698912,-1.460151 -1.152405,-2.052326 -0.776212,-1.013569 -0.82465,-1.189557 -0.82465,-3.002266 0,-4.444583 -1.66151,-11.331641 -4.069878,-16.86739 C 37.98372,11.61835 36.103688,8.7983651 33.220909,5.8922218 30.921618,3.5743096 30.239728,3.0415356 28.463591,2.1739267 25.76833,0.85733279 24.215808,0.44215765 21.52293,0.45841481 Z m -0.3492,0.45686765 c 5.809439,-9.7274e-4 10.901052,3.13296884 14.937015,9.19545254 3.974622,5.970347 6.842339,14.670885 7.166472,21.74095 0.13593,2.964713 0.150066,3.022357 0.94803,3.977459 1.043156,1.248562 1.309387,2.262598 1.311052,4.987896 0.0039,5.285031 -2.666481,10.686178 -5.609119,11.34735 -0.578629,0.13001 -1.48083,0.611825 -2.036126,1.087139 -0.548441,0.469443 -1.604341,1.151528 -2.346268,1.515906 -1.149585,0.564587 -1.658673,0.662668 -3.443889,0.662668 -1.943468,0 -2.187951,-0.05803 -3.382909,-0.800828 l -1.28771,-0.800826 -1.265789,1.197194 c -1.539326,1.455833 -2.49598,1.973856 -4.4086,2.387712 -1.66119,0.359455 -3.025913,0.381846 -4.268536,0.06956 C 17.017823,57.364904 15.701668,57.099398 14.562268,56.893126 11.505076,56.339651 9.6899554,55.393253 7.6297115,53.277729 5.7178809,51.314611 4.5661689,49.538875 3.811372,47.391346 3.3776892,46.157425 3.3211759,45.48809 3.3816599,42.285303 3.4465614,38.84807 3.4067988,38.460101 2.7914021,36.526585 1.5201466,32.532128 0.51651621,25.976996 0.70000956,22.867275 0.77228658,21.642831 0.82615573,21.531954 1.3179006,21.600052 1.9299039,21.684773 6.7169325,20.472662 7.1818958,20.115117 7.5499141,19.832114 7.5923654,17.595026 7.233823,17.373443 6.9548048,17.200999 2.2747943,18.332895 1.5356131,18.751664 1.0973031,18.99998 1.080675,18.940643 1.2316717,17.655943 1.4654433,15.666896 2.6308903,12.414537 3.837098,10.38419 7.163419,4.7851736 14.246343,0.91671884 21.173736,0.91528246 Z M 21.048443,1.4374145 c -0.25419,0.00123 -0.512777,0.00651 -0.776529,0.016196 -2.370452,0.086935 -2.836452,0.1772422 -3.780705,0.733179 -2.17573,1.2809826 -5.312244,4.9761759 -6.270362,7.3870426 L 9.9302425,10.305582 10.336134,9.6957898 C 10.559517,9.3604077 11.540249,8.2988184 12.515181,7.3366631 16.468076,3.4355629 21.354577,2.2908736 25.999184,4.1781374 30.029751,5.8159083 34.558398,10.281692 38.267413,16.276293 39.45543,18.19638 39.7017,18.188235 38.945327,16.25345 37.23097,11.868019 33.851711,7.1558095 30.658844,4.6979155 27.640909,2.3746887 24.861278,1.4201412 21.048443,1.4374401 Z M 17.121484,6.1771086 C 12.73647,6.1303681 10.12259,9.3088503 8.8397657,16.247231 8.2540423,19.415213 8.399133,26.794615 9.0908261,29.015204 c 0.1144798,0.367528 0.4045308,0.399458 2.4949039,0.274883 2.138055,-0.127416 2.55228,-0.078 4.316173,0.516415 3.214928,1.083379 6.548405,3.448591 8.777654,6.227968 0.652754,0.813833 1.304185,1.4407 1.447299,1.392989 0.143118,-0.04764 0.645222,-0.74819 1.115728,-1.556873 2.090606,-3.593205 4.482658,-5.831851 7.020214,-6.56954 0.718745,-0.208941 1.362949,-0.526197 1.431582,-0.70507 0.175979,-0.458581 -0.968517,-4.528759 -1.976577,-7.029271 C 30.726831,14.147604 26.542285,9.4476386 20.755459,7.007473 19.221372,6.3605831 18.481205,6.1915922 17.121484,6.1771086 Z m -0.10052,0.4178022 c 1.384184,0.00347 2.903358,0.4824613 5.039826,1.5411505 4.554883,2.2570607 8.674193,7.1521177 11.062464,13.1457577 0.6918,1.736157 2.169997,6.473851 2.169997,6.954947 0,0.101393 -0.569607,0.370655 -1.265789,0.598355 -2.608034,0.853052 -5.607364,3.673523 -7.155042,6.727715 -0.336617,0.664294 -0.692462,1.198393 -0.790816,1.18718 -0.09836,-0.01124 -0.947474,-0.852197 -1.886548,-1.868906 -2.091261,-2.264148 -4.092097,-3.78593 -6.341822,-4.823546 -2.404949,-1.109206 -3.973343,-1.4238 -6.360878,-1.274839 L 9.4662282,28.909444 9.2694756,27.534555 C 8.94204,25.249838 9.0351352,17.810083 9.4147785,15.915657 10.526788,10.366655 12.513758,7.4509615 15.664183,6.7459287 16.113472,6.6453817 16.559572,6.593747 17.020964,6.5949108 Z M 6.9208293,17.745032 c 0.1987139,0 0.050872,1.939634 -0.1576893,2.068523 -0.2651439,0.163864 -4.906465,1.583029 -5.1913198,1.587364 -0.1006155,0.002 -0.1829374,-0.487211 -0.1829374,-1.086193 0,-0.841174 0.1115503,-1.14888 0.4902156,-1.351541 0.3711799,-0.19865 4.5908444,-1.218153 5.0417309,-1.218153 z m 5.5471897,12.211537 c -0.533714,-0.009 -1.04496,0.03835 -1.548771,0.139109 -0.661328,0.132265 -0.764383,0.248746 -0.70126,0.792724 0.0672,0.579576 0.199777,0.653375 1.452539,0.808928 2.287794,0.28407 6.250477,2.108688 6.796785,3.129468 0.141339,0.2641 0.20769,0.480206 0.147689,0.480206 -0.06002,0 -0.871582,-0.439723 -1.80365,-0.977091 -2.765032,-1.594147 -6.275606,-2.566579 -6.275606,-1.738382 0,0.208294 0.66648,0.500654 1.790307,0.786057 2.620895,0.66558 4.931883,2.006428 7.293674,4.23138 3.1547,2.97193 4.83707,5.568768 5.940691,9.168301 0.753219,2.456678 0.757333,5.433885 0.01,7.268892 -0.486289,1.194001 -0.493906,1.292741 -0.09814,1.219583 0.236843,-0.04378 0.648636,-0.518599 0.915165,-1.055224 0.339741,-0.684029 0.52795,-1.704752 0.629801,-3.414828 l 0.145296,-2.439166 0.041,1.910366 c 0.05088,2.376385 0.386593,2.381928 1.311523,0.02095 0.798328,-2.037778 0.833509,-3.084301 0.187698,-5.611983 -0.666835,-2.610012 -2.108325,-5.433536 -3.987934,-7.810563 -1.989824,-2.516412 -3.798976,-3.983122 -6.436148,-5.218936 -2.406827,-1.127878 -4.209497,-1.662803 -5.810641,-1.689792 z m 22.678976,0.0071 c -0.805736,-0.01069 -1.244239,0.130941 -2.199532,0.567862 -0.789155,0.360938 -1.747875,0.95209 -2.130454,1.313438 -0.947156,0.894564 -2.642805,3.305118 -3.43627,4.884995 -0.612907,1.220363 -0.629334,1.337752 -0.267265,1.890351 0.212336,0.324055 0.465582,0.587309 0.563109,0.585015 0.09751,-0.002 0.446664,-0.633416 0.776056,-1.402516 0.386588,-0.902659 1.121529,-1.925089 2.073285,-2.884119 2.257135,-2.274374 4.094782,-2.612466 5.694874,-1.048081 0.921037,0.900478 1.264919,2.003566 1.266744,4.067019 0.0029,2.989814 -1.998119,7.370847 -4.165154,9.121611 -0.480244,0.387993 -1.413225,0.897923 -2.073288,1.133358 -1.087328,0.387835 -1.219778,0.518787 -1.412051,1.393465 -0.116714,0.530965 -0.362855,1.377264 -0.5469,1.880345 l -0.334433,0.91469 h 1.038074 c 0.591437,0 1.456687,-0.223369 2.010399,-0.518796 1.650691,-0.880703 2.726538,-1.870278 4.421466,-4.066066 3.041178,-3.939881 4.099124,-7.047395 3.954106,-11.615567 -0.07356,-2.316988 -0.175987,-2.890793 -0.697446,-3.904091 -0.858147,-1.66754 -1.517998,-2.084299 -3.574425,-2.2567 -0.382952,-0.03209 -0.69231,-0.05265 -0.960895,-0.05621 z m 5.435239,1.950849 c -0.01989,0.0026 -0.03654,0.01034 -0.04954,0.02334 -0.0709,0.0709 0.03845,0.77128 0.242962,1.5564 0.94114,3.61327 -0.165539,10.17408 -2.333877,13.83701 -2.32878,3.933963 -4.694579,5.860218 -8.148332,6.633384 l -0.73175,0.163401 0.609794,0.351106 c 1.01227,0.58266 3.535962,0.340655 5.193227,-0.497837 1.752355,-0.886609 3.567207,-2.640388 4.958836,-4.791624 0.591833,-0.914881 1.175455,-1.724865 1.296759,-1.799831 0.30802,-0.190365 1.40144,-3.6177 1.709795,-5.359015 0.537666,-3.036315 0.201656,-6.254298 -0.842273,-8.06544 -0.57022,-0.989278 -1.606559,-2.089014 -1.905597,-2.0509 z m -6.532861,1.329634 c -0.217862,0.0034 -0.574828,0.07683 -1.058079,0.242963 -1.126709,0.38734 -2.782337,1.954635 -3.548221,3.35909 -0.527461,0.967255 -0.47435,0.93479 0.99996,-0.614555 1.050639,-1.104114 1.986675,-1.825192 2.876498,-2.215738 1.013802,-0.44494 1.209141,-0.778998 0.729842,-0.77176 z m -22.848098,0.62265 c -0.105754,0.002 -0.179461,0.01939 -0.213426,0.05336 -0.06601,0.066 0.18935,0.747868 0.567867,1.515426 0.665954,1.350406 0.741142,1.413212 2.316251,1.94371 3.041578,1.02439 5.400563,2.856186 7.261273,5.638176 1.650007,2.466969 2.28548,4.584466 2.172383,7.23984 -0.06683,1.568149 -0.224609,2.284684 -0.709362,3.226172 -0.739565,1.436409 -2.293478,2.698519 -3.785464,3.074206 -1.611911,0.405879 -1.054454,0.780337 0.96566,0.648377 1.081342,-0.07062 2.103275,-0.302788 2.71119,-0.615985 2.034818,-1.048326 3.091897,-3.000608 3.122794,-5.768713 0.03317,-2.976907 -1.075652,-6.22297 -3.189015,-9.335036 -1.436386,-2.115177 -4.794187,-5.189203 -6.789162,-6.215581 -1.372405,-0.706093 -3.690707,-1.418818 -4.430989,-1.403953 z m 1.907028,4.098945 c -0.614959,0.0179 -0.05953,0.86311 1.70122,2.452971 3.062603,2.765379 5.012966,5.807578 5.752045,8.972025 0.442302,1.893758 0.32737,3.289679 -0.386363,4.68872 -0.580042,1.136986 -0.593039,1.228634 -0.174361,1.228634 0.174909,0 0.656703,-0.35673 1.07047,-0.792729 1.339168,-1.411148 1.656245,-2.287258 1.655958,-4.573428 -2.19e-4,-2.460282 -0.450642,-3.942037 -1.86129,-6.124587 -1.36209,-2.107413 -3.373623,-3.96177 -5.394266,-4.97265 -1.204314,-0.6025 -1.994442,-0.889709 -2.363413,-0.878956 z m 31.473301,0.512127 c -0.123464,0 -0.301047,0.740895 -0.394936,1.646431 -0.290261,2.7998 -1.250685,6.072432 -2.54683,8.679994 l -1.232439,2.479176 0.992814,-1.082851 c 0.545945,-0.59542 1.362892,-1.857685 1.815559,-2.805043 0.452652,-0.947346 0.995712,-2.396641 1.206716,-3.220929 0.413475,-1.615282 0.527472,-5.696778 0.159116,-5.696778 z M 13.717137,38.60273 c 0.238649,-0.008 0.92427,0.269698 2.046613,0.842277 1.304756,0.665642 3.946122,3.164515 4.874988,4.612016 1.845752,2.876347 2.297497,6.187275 1.17766,8.629016 -0.537886,1.172839 -0.91421,1.713657 -0.91421,1.31391 0,-0.04877 0.109319,-0.665389 0.242967,-1.370128 C 21.435123,51.1008 20.85073,48.352604 19.785988,46.23845 18.633984,43.951049 16.539511,41.214839 15.036285,40.033833 13.842518,39.095948 13.410301,38.613047 13.717137,38.60273 Z m 9.263106,0.850848 c 0.174927,0 2.401531,3.409399 2.289572,3.505821 -0.0543,0.04677 -0.617401,-0.723302 -1.25102,-1.710748 -0.633637,-0.987433 -1.10095,-1.795073 -1.038552,-1.795073 z M 8.6258608,41.648827 c -1.2385657,0 -1.4879213,0.08932 -2.2876667,0.822266 -0.8295154,0.760188 -0.9051981,0.945432 -1.0004399,2.441066 -0.1176774,1.848122 0.2102413,3.397622 1.0904789,5.151778 2.0912118,4.167468 6.5000679,6.555688 8.8581629,4.798297 1.161003,-0.86526 1.592457,-1.942728 1.579263,-3.944592 -0.01614,-2.452254 -1.028631,-4.621588 -3.138039,-6.722458 -1.862187,-1.854671 -3.248449,-2.546357 -5.1017592,-2.546357 z m 1.1638444,2.693087 c 0.4559238,-0.0073 0.9476568,0.120252 1.4963688,0.380639 1.043891,0.49536 2.456133,2.05013 3.049431,3.356708 1.347257,2.966961 -0.367166,5.619765 -3.02323,4.678237 -2.2472864,-0.796622 -3.906218,-3.150452 -3.9321972,-5.579109 -0.014026,-1.306459 0.049434,-1.479892 0.7812956,-2.13427 0.5147441,-0.460255 1.0421421,-0.692843 1.6283318,-0.702205 z m -0.2058046,0.480207 c -0.5691759,0.01877 -0.9868757,0.326666 -1.0838082,0.998058 -0.046462,0.32168 -0.2385302,0.672584 -0.4268535,0.779864 -0.4711952,0.268416 -0.4202116,1.073175 0.1467306,2.322446 0.6495538,1.431317 1.329871,2.257413 2.3953335,2.908416 1.257806,0.768522 2.547719,0.731326 3.195683,-0.09242 0.666831,-0.847745 0.643482,-2.10109 -0.06812,-3.625878 -0.920655,-1.972845 -2.906776,-3.331824 -4.1589624,-3.290476 z m 0.065743,0.517841 c 0.5898484,0.02454 1.4999004,0.342506 2.1033004,0.802734 1.660194,1.266297 2.62848,4.442803 1.629763,5.34663 -0.508475,0.460158 -1.639198,0.517271 -2.359129,0.119097 -1.2316804,-0.681222 -2.1317707,-1.876997 -2.5744619,-3.420539 -0.2921628,-1.018749 -0.069567,-0.833189 0.6112204,0.510219 1.0413735,2.055045 2.5089725,2.771424 3.5486985,1.731713 0.59317,-0.593174 0.616905,-1.24034 0.08575,-2.359605 -0.52309,-1.102333 -1.392801,-1.653048 -2.538256,-1.607373 -0.9209016,0.03669 -1.4000755,-0.400141 -1.0537943,-0.960421 0.076868,-0.124376 0.2787941,-0.173613 0.5469069,-0.162455 z M 9.308065,47.136943 c 0.065363,-0.0011 0.1412623,0 0.2281937,0 0.4869693,0 0.5460903,0.0734 0.3520594,0.435907 -0.1283541,0.239838 -0.1649871,0.651442 -0.081463,0.914683 0.2422719,0.763314 -0.03299,0.554238 -0.4625844,-0.351104 C 8.911116,47.223611 8.8505296,47.142891 9.3080661,47.136943 Z m 0.495931,1.951335 0.548812,0.464485 c 0.515751,0.436663 0.660157,0.633131 0.464965,0.633131 -0.04628,0 -0.293255,-0.246961 -0.548811,-0.548805 z" />
  </g>
  </g>
</svg>
